HIERARCHY
ROOT Root
{
  OFFSET 0.0 0.0 0.0
  CHANNELS 6 Xposition Yposition Zposition Zrotation Yrotation Xrotation
  JOINT Hips
  {
    OFFSET 0.0 100.0 0.0
    CHANNELS 6 Xposition Yposition Zposition Zrotation Yrotation Xrotation
    JOINT Spine1
    {
      OFFSET 5.003913 -0.037094 -0.013727
      CHANNELS 3 Zrotation Yrotation Xrotation
      JOINT Spine2
      {
        OFFSET 7.125363 -1e-06 0.0
        CHANNELS 3 Zrotation Yrotation Xrotation
        JOINT Chest
        {
          OFFSET 7.594027 1e-06 0.0
          CHANNELS 3 Zrotation Yrotation Xrotation
          JOINT Neck1
          {
            OFFSET 26.313086 -0.460272 -0.181672
            CHANNELS 3 Zrotation Yrotation Xrotation
            JOINT Neck2
            {
              OFFSET 8.045911 0.0 0.0
              CHANNELS 3 Zrotation Yrotation Xrotation
              JOINT Head
              {
                OFFSET 6.432774 0.0 0.0
                CHANNELS 3 Zrotation Yrotation Xrotation
                JOINT HeadEnd
                {
                  OFFSET 16.169773 0.06451 0.00362
                  CHANNELS 3 Zrotation Yrotation Xrotation
                }
                JOINT Jaw
                {
                  OFFSET 0.108741 3.12938 0.002639
                  CHANNELS 3 Zrotation Yrotation Xrotation
                }
                JOINT LeftEye
                {
                  OFFSET 4.45173 8.166359 3.206392
                  CHANNELS 3 Zrotation Yrotation Xrotation
                }
                JOINT RightEye
                {
                  OFFSET 4.436895 8.135758 -3.222429
                  CHANNELS 3 Zrotation Yrotation Xrotation
                }
              }
            }
          }
          JOINT LeftShoulder
          {
            OFFSET 23.218927 5.195579 1.621656
            CHANNELS 3 Zrotation Yrotation Xrotation
            JOINT LeftArm
            {
              OFFSET 15.902118 2e-06 -2e-06
              CHANNELS 3 Zrotation Yrotation Xrotation
              JOINT LeftForeArm
              {
                OFFSET 28.739307 0.0 -1e-06
                CHANNELS 3 Zrotation Yrotation Xrotation
                JOINT LeftHand
                {
                  OFFSET 27.093981 -4e-06 0.0
                  CHANNELS 3 Zrotation Yrotation Xrotation
                  JOINT LeftHandThumb1
                  {
                    OFFSET 2.276781 3.380274 0.83384
                    CHANNELS 3 Zrotation Yrotation Xrotation
                    JOINT LeftHandThumb2
                    {
                      OFFSET 4.705309 -1e-06 -1e-06
                      CHANNELS 3 Zrotation Yrotation Xrotation
                      JOINT LeftHandThumb3
                      {
                        OFFSET 2.798515 0.0 3e-06
                        CHANNELS 3 Zrotation Yrotation Xrotation
                        JOINT LeftHandThumbEnd
                        {
                          OFFSET 3.180793 4e-06 -4e-06
                          CHANNELS 3 Zrotation Yrotation Xrotation
                        }
                      }
                    }
                  }
                  JOINT LeftHandIndex1
                  {
                    OFFSET 3.247786 2.352677 0.137192
                    CHANNELS 3 Zrotation Yrotation Xrotation
                    JOINT LeftHandIndex2
                    {
                      OFFSET 6.367095 1e-06 0.0
                      CHANNELS 3 Zrotation Yrotation Xrotation
                      JOINT LeftHandIndex3
                      {
                        OFFSET 3.662364 0.0 0.0
                        CHANNELS 3 Zrotation Yrotation Xrotation
                        JOINT LeftHandIndex4
                        {
                          OFFSET 2.329242 4e-06 -4e-06
                          CHANNELS 3 Zrotation Yrotation Xrotation
                          JOINT LeftHandIndexEnd
                          {
                            OFFSET 2.767823 1e-06 0.0
                            CHANNELS 3 Zrotation Yrotation Xrotation
                          }
                        }
                      }
                    }
                  }
                  JOINT LeftHandMiddle1
                  {
                    OFFSET 3.163612 0.945023 -0.406112
                    CHANNELS 3 Zrotation Yrotation Xrotation
                    JOINT LeftHandMiddle2
                    {
                      OFFSET 6.276789 3e-06 0.0
                      CHANNELS 3 Zrotation Yrotation Xrotation
                      JOINT LeftHandMiddle3
                      {
                        OFFSET 4.35652 -1e-06 4e-06
                        CHANNELS 3 Zrotation Yrotation Xrotation
                        JOINT LeftHandMiddle4
                        {
                          OFFSET 2.996877 0.0 8e-06
                          CHANNELS 3 Zrotation Yrotation Xrotation
                          JOINT LeftHandMiddleEnd
                          {
                            OFFSET 2.323256 3e-06 -4e-06
                            CHANNELS 3 Zrotation Yrotation Xrotation
                          }
                        }
                      }
                    }
                  }
                  JOINT LeftHandRing1
                  {
                    OFFSET 2.882606 -0.309162 0.107445
                    CHANNELS 3 Zrotation Yrotation Xrotation
                    JOINT LeftHandRing2
                    {
                      OFFSET 6.033198 0.0 4e-06
                      CHANNELS 3 Zrotation Yrotation Xrotation
                      JOINT LeftHandRing3
                      {
                        OFFSET 4.350578 3e-06 0.0
                        CHANNELS 3 Zrotation Yrotation Xrotation
                        JOINT LeftHandRing4
                        {
                          OFFSET 2.651321 2e-06 -7e-06
                          CHANNELS 3 Zrotation Yrotation Xrotation
                          JOINT LeftHandRingEnd
                          {
                            OFFSET 1.937663 1e-06 -4e-06
                            CHANNELS 3 Zrotation Yrotation Xrotation
                          }
                        }
                      }
                    }
                  }
                  JOINT LeftHandPinky1
                  {
                    OFFSET 2.865315 -1.525436 0.575687
                    CHANNELS 3 Zrotation Yrotation Xrotation
                    JOINT LeftHandPinky2
                    {
                      OFFSET 5.54936 1e-06 -8e-06
                      CHANNELS 3 Zrotation Yrotation Xrotation
                      JOINT LeftHandPinky3
                      {
                        OFFSET 3.070974 0.0 -4e-06
                        CHANNELS 3 Zrotation Yrotation Xrotation
                        JOINT LeftHandPinky4
                        {
                          OFFSET 1.549672 1e-06 0.0
                          CHANNELS 3 Zrotation Yrotation Xrotation
                          JOINT LeftHandPinkyEnd
                          {
                            OFFSET 1.952123 0.0 0.0
                            CHANNELS 3 Zrotation Yrotation Xrotation
                          }
                        }
                      }
                    }
                  }
                }
              }
            }
          }
          JOINT RightShoulder
          {
            OFFSET 23.161716 5.296122 -1.380114
            CHANNELS 3 Zrotation Yrotation Xrotation
            JOINT RightArm
            {
              OFFSET -16.027195 -2e-06 1.1e-05
              CHANNELS 3 Zrotation Yrotation Xrotation
              JOINT RightForeArm
              {
                OFFSET -28.736639 4e-06 2e-06
                CHANNELS 3 Zrotation Yrotation Xrotation
                JOINT RightHand
                {
                  OFFSET -27.133619 6e-06 0.0
                  CHANNELS 3 Zrotation Yrotation Xrotation
                  JOINT RightHandThumb1
                  {
                    OFFSET -2.274328 -3.351035 -0.83067
                    CHANNELS 3 Zrotation Yrotation Xrotation
                    JOINT RightHandThumb2
                    {
                      OFFSET -4.703594 -3e-06 2e-06
                      CHANNELS 3 Zrotation Yrotation Xrotation
                      JOINT RightHandThumb3
                      {
                        OFFSET -2.794935 -4e-06 -3e-06
                        CHANNELS 3 Zrotation Yrotation Xrotation
                        JOINT RightHandThumbEnd
                        {
                          OFFSET -3.183852 4e-06 1e-06
                          CHANNELS 3 Zrotation Yrotation Xrotation
                        }
                      }
                    }
                  }
                  JOINT RightHandIndex1
                  {
                    OFFSET -3.253496 -2.33755 -0.127667
                    CHANNELS 3 Zrotation Yrotation Xrotation
                    JOINT RightHandIndex2
                    {
                      OFFSET -6.344434 0.0 0.0
                      CHANNELS 3 Zrotation Yrotation Xrotation
                      JOINT RightHandIndex3
                      {
                        OFFSET -3.654871 0.0 -8e-06
                        CHANNELS 3 Zrotation Yrotation Xrotation
                        JOINT RightHandIndex4
                        {
                          OFFSET -2.327586 -1e-06 0.0
                          CHANNELS 3 Zrotation Yrotation Xrotation
                          JOINT RightHandIndexEnd
                          {
                            OFFSET -2.770001 3e-06 8e-06
                            CHANNELS 3 Zrotation Yrotation Xrotation
                          }
                        }
                      }
                    }
                  }
                  JOINT RightHandMiddle1
                  {
                    OFFSET -3.168223 -0.944764 0.411762
                    CHANNELS 3 Zrotation Yrotation Xrotation
                    JOINT RightHandMiddle2
                    {
                      OFFSET -6.266691 -1e-06 -4e-06
                      CHANNELS 3 Zrotation Yrotation Xrotation
                      JOINT RightHandMiddle3
                      {
                        OFFSET -4.348901 0.0 0.0
                        CHANNELS 3 Zrotation Yrotation Xrotation
                        JOINT RightHandMiddle4
                        {
                          OFFSET -3.00024 2e-06 -4e-06
                          CHANNELS 3 Zrotation Yrotation Xrotation
                          JOINT RightHandMiddleEnd
                          {
                            OFFSET -2.321477 -4e-06 -4e-06
                            CHANNELS 3 Zrotation Yrotation Xrotation
                          }
                        }
                      }
                    }
                  }
                  JOINT RightHandRing1
                  {
                    OFFSET -2.885654 0.293261 -0.119232
                    CHANNELS 3 Zrotation Yrotation Xrotation
                    JOINT RightHandRing2
                    {
                      OFFSET -6.032835 -1e-06 -4e-06
                      CHANNELS 3 Zrotation Yrotation Xrotation
                      JOINT RightHandRing3
                      {
                        OFFSET -4.33881 0.0 -4e-06
                        CHANNELS 3 Zrotation Yrotation Xrotation
                        JOINT RightHandRing4
                        {
                          OFFSET -2.654903 -4e-06 -4e-06
                          CHANNELS 3 Zrotation Yrotation Xrotation
                          JOINT RightHandRingEnd
                          {
                            OFFSET -1.935122 0.0 4e-06
                            CHANNELS 3 Zrotation Yrotation Xrotation
                          }
                        }
                      }
                    }
                  }
                  JOINT RightHandPinky1
                  {
                    OFFSET -2.866241 1.503904 -0.60527
                    CHANNELS 3 Zrotation Yrotation Xrotation
                    JOINT RightHandPinky2
                    {
                      OFFSET -5.553177 -2e-06 0.0
                      CHANNELS 3 Zrotation Yrotation Xrotation
                      JOINT RightHandPinky3
                      {
                        OFFSET -3.062664 -1e-06 -4e-06
                        CHANNELS 3 Zrotation Yrotation Xrotation
                        JOINT RightHandPinky4
                        {
                          OFFSET -1.546529 2e-06 4e-06
                          CHANNELS 3 Zrotation Yrotation Xrotation
                          JOINT RightHandPinkyEnd
                          {
                            OFFSET -1.952341 0.0 -4e-06
                            CHANNELS 3 Zrotation Yrotation Xrotation
                          }
                        }
                      }
                    }
                  }
                }
              }
            }
          }
        }
      }
    }
    JOINT LeftLeg
    {
      OFFSET -8.443107 2.567604 10.043214
      CHANNELS 3 Zrotation Yrotation Xrotation
      JOINT LeftShin
      {
        OFFSET 43.229198 1e-06 -1e-06
        CHANNELS 3 Zrotation Yrotation Xrotation
        JOINT LeftFoot
        {
          OFFSET 42.298611 1e-06 1e-06
          CHANNELS 3 Zrotation Yrotation Xrotation
          JOINT LeftToeBase
          {
            OFFSET 14.165858 1e-06 0.0
            CHANNELS 3 Zrotation Yrotation Xrotation
            JOINT LeftToeEnd
            {
              OFFSET 6.7141 -0.234461 0.0
              CHANNELS 3 Zrotation Yrotation Xrotation
            }
          }
        }
      }
    }
    JOINT RightLeg
    {
      OFFSET -8.303923 2.592729 -10.047278
      CHANNELS 3 Zrotation Yrotation Xrotation
      JOINT RightShin
      {
        OFFSET -43.369682 0.0 1e-06
        CHANNELS 3 Zrotation Yrotation Xrotation
        JOINT RightFoot
        {
          OFFSET -42.260784 4e-06 2e-06
          CHANNELS 3 Zrotation Yrotation Xrotation
          JOINT RightToeBase
          {
            OFFSET -14.222245 -2e-06 -1e-06
            CHANNELS 3 Zrotation Yrotation Xrotation
            JOINT RightToeEnd
            {
              OFFSET -6.660062 0.232574 -2e-06
              CHANNELS 3 Zrotation Yrotation Xrotation
            }
          }
        }
      }
    }
  }
}
MOTION
Frames: 4
Frame Time: 0.03333333333333333
0.0 0.0 0.0 0.0 -0.0 0.0 0.100191 89.716942 -1.887537 88.977196 22.288422 89.943153 1.323756 1.811334 -0.15774 -10.331905 -0.025561 -0.397832 21.330292 0.828826 -1.161776 39.675224 -5.454084 1.603153 -2.49469 -0.578865 -1.010765 -22.974623 1.846063 -2.230389 6e-06 -0.0 0.0 -0.025442 0.012032 -0.070397 0.016526 0.067334 -0.05721 0.01936 -0.048507 -0.071233 -132.238632 -69.356033 151.846207 23.442417 -36.352909 9.272421 23.314543 -0.404751 0.133563 -3.008672 -7.211864 2.653198 17.636631 -26.322737 52.411213 -19.466658 -14.3956 29.410395 0.0 -8.774823 -1e-06 16.632582 -17.820374 5.661226 -0.609777 -1.795656 -3.889328 -4.807091 -11.046812 -2.937852 3e-06 -20.976019 -0.0 -5.019974 -25.033562 -4.031881 5e-06 1e-06 0.0 -10.634537 -5.68697 -3.565589 10.573276 -17.922953 -3.113902 2e-06 -13.82121 2e-06 -0.501779 -31.181505 -4.027016 -10.910985 -59.436504 6.594927 -13.982718 -7.150201 -2.875042 13.772732 -8.401491 -3.218242 0.347731 -34.211555 0.771657 -0.96303 -17.733372 2.62102 1e-06 -0.0 -2e-06 -17.346424 -20.095219 -4.201785 21.757561 -1.638374 3.86643 1e-06 -6.338823 2e-06 -1.697591 -22.591743 -6.194009 0.0 -4e-06 -3e-06 48.891991 -75.698799 150.236328 13.834718 -47.032715 3.291676 22.75297 -0.688105 0.305302 1.535651 -0.163115 -13.930972 22.182116 -20.375891 49.933315 -16.701815 -16.743532 28.476532 -3e-06 -12.690603 -0.0 16.329111 -18.122232 2.71925 -0.105919 -1.513853 -4.275881 -5.039041 -5.612871 -2.953557 3e-06 -11.020521 -2e-06 -6.1113 -15.89533 -3.840472 0.0 0.0 0.0 -10.283371 -5.680286 -4.341839 11.028294 -11.302402 -2.372633 -1.38427 -14.238578 -6.320121 -0.625439 -26.924187 -3.827603 -4.677061 -50.340359 -3.430471 -13.708527 -7.363474 -3.720939 18.141151 -14.052734 -3.242674 5e-06 -18.787266 -2e-06 -0.429713 -8.456043 2.555503 -1e-06 -1e-06 -0.0 -15.923538 -20.094479 -5.473586 30.419218 -7.190824 1.735926 3e-06 -8.162925 -0.0 -1.861904 -22.861464 -6.167941 -1e-06 -5e-06 -1e-06 -174.608994 -14.102878 0.04065 48.352715 -0.194148 0.204805 -100.023933 1.319413 -15.30302 -6.364217 1.570841 2.100271 -0.999998 0.0 0.0 7.765738 -14.545094 -10.46664 48.58625 -0.255433 0.327086 -97.290947 -4.213805 -18.432692 -5.25412 0.628858 1.650931 -1.000002 0.0 -0.0 
0.0 0.0 0.0 0.0 -0.0 0.0 0.052479 89.823196 -1.953491 88.856346 22.437687 89.88768 1.265039 1.786218 -0.231405 -10.337433 0.036834 -0.341911 21.32748 0.74758 -1.212847 39.77544 -5.490784 1.58591 -2.489235 -0.588067 -0.980033 -22.746769 1.839087 -2.193877 5e-06 -0.0 0.0 -0.039142 0.007393 -0.052737 -0.002836 0.062953 -0.043128 -0.005047 -0.053053 -0.050667 -132.099731 -69.233681 151.865463 23.570505 -35.782555 9.00482 23.255093 -0.369266 0.140184 -2.846801 -7.304855 2.897078 17.636639 -26.322741 52.411209 -19.466663 -14.395596 29.410389 -0.0 -8.774822 -2e-06 16.61409 -17.797731 5.679652 -0.609776 -1.795653 -3.889328 -4.80709 -11.046811 -2.937852 5e-06 -20.976019 1e-06 -5.019971 -25.03356 -4.031879 7e-06 1e-06 -1e-06 -10.634534 -5.686969 -3.56559 10.573276 -17.922951 -3.1139 3e-06 -13.821209 2e-06 -0.501777 -31.181505 -4.027015 -10.847882 -59.47855 6.701411 -13.982716 -7.150197 -2.875044 13.772731 -8.401495 -3.218242 0.347735 -34.211555 0.771658 -0.963028 -17.733372 2.62102 -0.0 -0.0 0.0 -17.346416 -20.095217 -4.201785 21.757557 -1.638377 3.866427 2e-06 -6.338824 1e-06 -1.697588 -22.591745 -6.194006 -0.0 -4e-06 -2e-06 48.652054 -75.639191 150.500549 13.401531 -46.517258 3.430041 23.252287 -0.566094 0.301082 1.556716 -0.401757 -13.470964 22.182116 -20.375889 49.933319 -16.701817 -16.743528 28.476532 -3e-06 -12.690601 -1e-06 16.347393 -18.101036 2.736247 -0.10592 -1.513857 -4.275882 -5.039041 -5.61287 -2.953557 2e-06 -11.020523 -2e-06 -6.111298 -15.895334 -3.840471 1e-06 -0.0 0.0 -10.283371 -5.680291 -4.341839 11.028294 -11.302406 -2.372633 -1.384268 -14.238584 -6.320122 -0.625439 -26.924192 -3.827603 -4.716329 -50.570137 -3.238275 -13.708527 -7.363478 -3.720938 18.141153 -14.052742 -3.242677 4e-06 -18.787271 -1e-06 -0.429714 -8.456046 2.555504 -0.0 0.0 -0.0 -15.923536 -20.094484 -5.473585 30.419218 -7.190826 1.735925 1e-06 -8.162928 -1e-06 -1.8619 -22.861473 -6.167946 -1e-06 -3e-06 -2e-06 -174.315353 -14.275218 -0.09145 47.995079 -0.197546 0.267204 -99.81353 1.410702 -15.214664 -6.437351 1.571245 2.10738 -0.999998 0.0 0.0 7.98537 -14.367285 -10.498109 48.339569 -0.246296 0.292765 -96.985161 -4.074751 -18.380138 -5.346279 0.62663 1.658062 -1.000002 -0.0 -1e-06 
0.0 0.0 0.0 0.0 -0.0 0.0 0.003454 89.911224 -2.034851 88.738007 22.551519 89.822159 1.187231 1.765991 -0.281341 -10.356294 0.064605 -0.313962 21.330996 0.695953 -1.212181 39.757553 -5.603202 1.608512 -2.522543 -0.588567 -0.989388 -22.416468 1.851618 -2.16573 6e-06 0.0 -0.0 -0.045677 0.007475 -0.047491 -0.029582 0.05993 -0.037553 -0.030645 -0.050072 -0.046543 -132.237457 -69.118942 152.052399 23.593557 -35.104366 8.898633 23.452511 -0.380723 0.118999 -2.755221 -7.484237 2.937927 17.636629 -26.322737 52.411194 -19.466656 -14.395597 29.410381 -1e-06 -8.774821 -1e-06 16.624514 -17.841667 5.696223 -0.609775 -1.795652 -3.889327 -4.80709 -11.04681 -2.93785 3e-06 -20.976019 1e-06 -5.019974 -25.033558 -4.031878 5e-06 -2e-06 0.0 -10.634534 -5.68697 -3.565586 10.573272 -17.922947 -3.113899 2e-06 -13.821208 4e-06 -0.50178 -31.181505 -4.027011 -10.872779 -59.515114 6.739102 -13.982712 -7.150196 -2.875041 13.77273 -8.401492 -3.218241 0.347731 -34.211555 0.771661 -0.96303 -17.73337 2.621019 -2e-06 -1e-06 1e-06 -17.34642 -20.095217 -4.201779 21.757563 -1.638375 3.866428 1e-06 -6.338824 -0.0 -1.697591 -22.591747 -6.194004 -0.0 -2e-06 -3e-06 48.230068 -75.563583 150.886017 13.002678 -45.75071 3.5334 23.823992 -0.466023 0.310708 1.564767 -0.692021 -13.337518 22.182114 -20.375896 49.933323 -16.701811 -16.74353 28.476528 -3e-06 -12.690599 -1e-06 16.344849 -18.056129 2.757214 -0.105919 -1.513855 -4.275881 -5.03904 -5.61287 -2.953556 3e-06 -11.020524 -1e-06 -6.111297 -15.89533 -3.84047 1e-06 0.0 0.0 -10.283366 -5.680284 -4.341839 11.028292 -11.302403 -2.372632 -1.384269 -14.238579 -6.32012 -0.625438 -26.924183 -3.8276 -4.718665 -50.70871 -3.149395 -13.708523 -7.363477 -3.72094 18.141146 -14.052739 -3.242674 7e-06 -18.787266 -1e-06 -0.429711 -8.456045 2.555502 -0.0 -0.0 1e-06 -15.923532 -20.094481 -5.473586 30.419207 -7.190827 1.735926 2e-06 -8.162925 -1e-06 -1.861898 -22.861471 -6.167943 -2e-06 -5e-06 -2e-06 -174.101242 -14.449326 -0.219258 47.707199 -0.1938 0.280079 -99.613319 1.490851 -15.118723 -6.461555 1.555279 2.111194 -0.999998 -0.0 -0.0 8.14457 -14.210951 -10.545072 48.113701 -0.231119 0.270225 -96.752029 -3.96112 -18.386642 -5.359141 0.639274 1.666514 -1.000003 -1e-06 -0.0 
0.0 0.0 0.0 0.0 -0.0 0.0 -0.038855 90.00415 -2.118481 88.591316 22.618996 89.746445 1.133428 1.769182 -0.31411 -10.377858 0.085698 -0.293792 21.304092 0.66112 -1.19006 39.619816 -5.729901 1.639107 -2.556778 -0.614204 -0.949152 -22.145021 1.880907 -2.159853 6e-06 -0.0 -0.0 -0.04741 0.007162 -0.04855 -0.052743 0.057165 -0.037714 -0.053335 -0.04813 -0.049322 -132.445709 -69.028702 152.241043 23.656036 -34.418793 8.771024 23.767859 -0.399021 0.101528 -2.689695 -7.644893 2.909265 17.636621 -26.322737 52.411205 -19.46666 -14.395598 29.410393 1e-06 -8.774822 -3e-06 16.600573 -17.868095 5.720721 -0.609777 -1.795655 -3.889329 -4.80709 -11.046811 -2.937851 2e-06 -20.976019 2e-06 -5.019974 -25.03356 -4.031878 5e-06 2e-06 -2e-06 -10.634534 -5.68697 -3.565586 10.573272 -17.922951 -3.113904 1e-06 -13.821209 2e-06 -0.50178 -31.181501 -4.027015 -10.91395 -59.535393 6.762592 -13.982716 -7.150198 -2.875041 13.77273 -8.401492 -3.218243 0.347729 -34.211555 0.771656 -0.963029 -17.733374 2.621019 -1e-06 -0.0 0.0 -17.34642 -20.095215 -4.201778 21.757561 -1.638372 3.866425 1e-06 -6.338823 -0.0 -1.697592 -22.591745 -6.194004 -0.0 -4e-06 -4e-06 47.680065 -75.514915 151.407745 12.787838 -44.775181 3.553264 24.435795 -0.372338 0.359282 1.522269 -1.129879 -13.353119 22.182121 -20.3759 49.933334 -16.701817 -16.74353 28.476536 -3e-06 -12.690603 -1e-06 16.344389 -18.039379 2.771318 -0.105919 -1.513858 -4.275883 -5.039041 -5.61287 -2.953557 3e-06 -11.020525 -2e-06 -6.111297 -15.895334 -3.840471 -1e-06 1e-06 -0.0 -10.283371 -5.68029 -4.34184 11.028296 -11.302403 -2.372633 -1.384271 -14.238579 -6.320121 -0.625437 -26.924192 -3.827601 -4.721985 -50.760509 -3.133356 -13.708527 -7.363474 -3.720941 18.141151 -14.052739 -3.242675 7e-06 -18.78727 -1e-06 -0.42971 -8.456045 2.555504 -0.0 1e-06 -0.0 -15.923538 -20.094482 -5.473587 30.419218 -7.190827 1.735927 1e-06 -8.162925 0.0 -1.861905 -22.861467 -6.167941 1e-06 -4e-06 -1e-06 -173.943863 -14.633348 -0.314225 47.433895 -0.189261 0.271048 -99.40712 1.51475 -15.089101 -6.484242 1.536235 2.108845 -1.0 0.0 0.0 8.279011 -13.994216 -10.537333 47.814465 -0.219027 0.250744 -96.547356 -3.942402 -18.420891 -5.346837 0.652154 1.670768 -1.000001 -0.0 -0.0 
